<?xml version="1.0" encoding="utf-8"?>
<!-- Generator: Adobe Illustrator 18.1.1, SVG Export Plug-In . SVG Version: 6.00 Build 0)  -->
<svg version="1.1" id="Layer_1" xmlns="http://www.w3.org/2000/svg" xmlns:xlink="http://www.w3.org/1999/xlink" x="0px" y="0px"
	 viewBox="0 0 564 426" enable-background="new 0 0 564 426" xml:space="preserve">
<g>
	<path fill="#FFFFFF" d="M28.7,273.9c9.9-1.2,19.2-0.2,28,3.1c8.8,3.3,16.3,8.1,22.5,14.4c6.2,6.3,11.3,13.6,15.3,21.8
		c4,8.3,6.6,16.9,7.9,25.7c2.5,19.6-1.8,36.4-12.9,50.6c-12.7,16.1-32,24.9-58,26.2c-1.6,0.1-2.7-0.5-3.3-1.8c-0.6,0.7-1.4,1-2.3,1
		s-1.7-0.2-2.2-0.7c-0.5-0.5-0.8-1.1-0.8-1.9c0-15.2,0-37.9,0.1-68.3c0.1-30.3,0.1-53.1,0.1-68.3c0-0.8,0.3-1.5,0.8-1.9
		c0.5-0.5,1.3-0.7,2.2-0.7c0.9,0,1.7,0.3,2.3,0.8H28.7z M29.2,279.3c0,14.5,0,36.4-0.1,65.7c-0.1,29.3-0.1,51.4-0.1,66.3
		c0.6-0.5,1.3-0.8,2.1-0.8c24.1-1.4,41.9-9.4,53.3-24c10.2-13,14.1-28.6,11.7-47c-1.4-11.8-5-22.4-10.8-31.8
		c-5.9-9.6-13.8-17.1-23.7-22.5c-9.9-5.4-20.5-7.4-31.9-6H29.2z"/>
	<path fill="#FFFFFF" d="M145.8,281.3c-0.6,13.8-1.1,35.4-1.4,64.7c-0.3,29.3-0.9,51.6-1.6,66.7c0,0.7-0.3,1.3-0.9,1.8
		c-0.6,0.5-1.4,0.8-2.2,0.7c-0.9-0.1-1.6-0.4-2.2-0.9c-0.6-0.5-0.9-1.2-0.7-2c0.8-15,1.3-37.2,1.6-66.5c0.3-29.3,0.8-51,1.4-64.9
		c0-0.7,0.3-1.3,0.9-1.8c0.6-0.5,1.4-0.8,2.2-0.7c0.9,0.1,1.6,0.4,2.2,0.9C145.7,279.8,146,280.5,145.8,281.3z"/>
	<path fill="#FFFFFF" d="M176.1,414c-0.6-11.5-0.5-33.7,0.5-66.6c0.8-27.7,0.3-49.8-1.4-66c-0.2-1.1,0.3-1.9,1.4-2.5v-0.2
		c0-0.7,0.3-1.3,0.8-1.8c0.5-0.5,1.3-0.8,2.2-0.8c1.1-0.1,3-0.3,5.6-0.5c2.7-0.2,4.6-0.3,5.9-0.3c5.6-0.3,9.9-0.1,12.9,0.6
		c3.3,0.8,6.6,2.5,9.9,5c3.3,2.5,5.8,5.3,7.5,8.3c2,3.6,2.5,6.8,1.4,9.8c-1.4,3.6-4.8,6-10.1,7.4c-3.6,1-8.3,1.3-14.1,1
		c2.2,4.5,4.6,11.6,7.3,21.3c0.8,3,2,7.9,3.5,14.7c1.6,6.8,2.7,11.3,3.5,13.6c0.6,2.3,3.9,11.4,9.9,27.3c4.2,11.3,7,20.7,8.4,28.1
		c0.2,0.7,0,1.3-0.5,1.9c-0.5,0.6-1.1,1-2,1.1c-0.9,0.1-1.6,0-2.3-0.4c-0.7-0.4-1.1-1-1.3-1.8c-1.3-6.3-4.1-15.4-8.4-27.3
		c-5.3-14.5-8.6-23.7-9.9-27.7c-0.6-2.3-1.7-6.9-3.3-13.7l-3.8-14.6c-3.1-11.6-6-19.3-8.5-23.2l-8.4-1c0.3,10.8,0.3,24.7,0,41.8
		c-0.6,38.3-0.9,60.3-0.7,66c0.2,0.8-0.1,1.5-0.7,2.1c-0.6,0.5-1.4,0.9-2.2,0.9c-0.9,0.1-1.6-0.2-2.2-0.7
		C176.4,415.3,176.1,414.7,176.1,414z M181.3,281.3c0.6,6,1.1,12.3,1.4,18.9c0.9,0.1,2.4,0.3,4.5,0.6c2,0.3,3.7,0.4,4.9,0.4
		c0.9-0.3,1.8-0.1,2.6,0.4c7.2,0.5,12.6,0.3,16.2-0.6c3.3-0.8,5.3-2.1,6.1-3.7c0.6-1.6,0.2-3.6-1.2-5.7c-1.3-2.3-3.2-4.5-5.9-6.6
		c-2.7-2.1-5.2-3.3-7.7-3.9c-2.2-0.5-5.7-0.7-10.6-0.4c-1.3,0-3,0.1-5.4,0.3C183.8,281.2,182.2,281.3,181.3,281.3z"/>
	<path fill="#FFFFFF" d="M260.4,275c8.3-0.1,13.8-0.2,16.7-0.2s8.3,0.2,16.4,0.5c8.1,0.3,13.6,0.6,16.4,0.7c0.9,0,1.7,0.3,2.2,0.8
		c0.5,0.5,0.8,1.2,0.8,1.9c0,0.8-0.3,1.4-0.9,1.8c-0.6,0.5-1.3,0.7-2.1,0.7c-3.1,0-8-0.1-14.7-0.4c-6.7-0.3-12.5-0.5-17.5-0.6
		c-5-0.1-9.9-0.1-14.6,0v21.3c2.5,0.1,7.5,0.2,15,0.2c0.9,0,1.7,0.2,2.2,0.7c0.5,0.5,0.8,1.1,0.8,1.9s-0.3,1.5-0.8,1.9
		c-0.6,0.5-1.3,0.7-2.2,0.7c-7.4,0-12.4-0.1-15-0.2v104.6c2.5,0,6.3,0,11.4-0.1c5.1-0.1,9-0.2,11.6-0.3c10.3,0,19,0.3,26,1
		c0.9,0,1.7,0.3,2.2,0.9c0.5,0.6,0.8,1.3,0.7,2c-0.1,0.8-0.5,1.4-1.2,1.8c-0.7,0.5-1.4,0.6-2.2,0.5c-7-0.5-15.6-0.8-25.6-0.8
		c-2.7,0-6.7,0-12,0.1c-5.3,0.1-9.2,0.1-11.7,0.1c-0.6,0.5-1.4,0.8-2.3,0.8s-1.7-0.2-2.2-0.7c-0.5-0.5-0.8-1.1-0.8-1.9V278
		c0-0.8,0.4-1.5,1.2-2C258.7,275.3,259.4,275,260.4,275z"/>
	<path fill="#FFFFFF" d="M457.1,307.4c-5.8-11.2-13.2-18.9-22.3-23c-8.6-3.8-19.9-5.1-34-3.7c-14.2,1.5-25.4,6.7-33.6,15.6
		c-6,6.7-10.3,14.4-13.1,23.2c-2.8,8.7-4.2,17.4-4.1,25.8c0.1,8.5,1.2,17.2,3.4,26.2c0.3,1.2,0.7,2.5,1.2,3.8
		c0.5,1.3,0.9,2.4,1.3,3.3c0.4,0.9,1.1,2.1,2,3.6c0.9,1.5,1.6,2.5,2,3.1c0.4,0.5,1.2,1.7,2.3,3.6c1.2,1.8,1.9,3,2.2,3.4
		c5.8,8.5,13.1,14.5,21.8,17.9c8.8,3.5,17.8,4.5,27.2,3c9.4-1.5,17.9-5.2,25.6-11.1c7.7-5.9,13.1-13.3,16.4-22.4
		c1.1-3,2.1-8.8,3-17.4c0-0.8,0.4-1.5,1.1-1.9c0.7-0.5,1.5-0.7,2.3-0.6c0.9,0.1,1.6,0.4,2.1,1c0.5,0.6,0.7,1.3,0.6,1.9
		c-0.8,9-1.8,15.2-3.1,18.7c-3.8,10-9.9,18.2-18.4,24.7c-8.5,6.5-18,10.6-28.5,12.4c-10.6,1.6-21,0.5-31-3.4
		c-10-3.9-18.2-10.6-24.4-20c-0.3-0.5-1.1-1.7-2.3-3.5c-1.3-1.8-2-3-2.3-3.7l-2.3-3.3c-0.9-1.6-1.6-3-2.1-4c-0.5-1-1-2.3-1.5-3.7
		c-0.5-1.4-1-2.8-1.3-4.2c-2.2-9.6-3.4-18.7-3.5-27.5c-0.2-8.9,1.3-18,4.3-27.5c3-9.4,7.9-17.7,14.4-24.8
		c9.1-10.1,21.5-16,37.3-17.6c15.5-1.6,28.2-0.2,38,4.3c10.2,4.6,18.5,13.1,24.9,25.2c0.9,1.8,0.4,3-1.5,3.8
		C459.2,309.4,457.8,309,457.1,307.4z"/>
	<path fill="#FFFFFF" d="M486.4,276.6c5.9,0,14.7-0.1,26.4-0.4c11.7-0.3,20.4-0.4,26.2-0.4c0.9,0,1.7,0.2,2.2,0.7
		c0.5,0.5,0.8,1.1,0.8,1.9c0,0.8-0.3,1.5-0.8,1.9c-0.5,0.5-1.3,0.7-2.2,0.7c-5.8,0-13.6,0.1-23.5,0.4c0.2,2.1,0.1,4.6-0.2,7.8
		c-0.2,4.9-0.2,8.2-0.2,9.8c0.9,15,1.7,36.4,2.3,64.2l1.2,52.1c0,0.7-0.3,1.3-0.8,1.8c-0.6,0.5-1.3,0.8-2.1,0.8
		c-0.9,0-1.6-0.2-2.2-0.7c-0.6-0.5-0.9-1.1-0.9-1.9c-0.3-6.8-0.8-24.1-1.4-51.9c-0.6-27.7-1.3-49.1-2.1-64
		c-0.2-1.9-0.1-5.4,0.2-10.5c0.2-3.1,0.2-5.6,0-7.4c-9.5,0.1-17.1,0.2-22.8,0.2c-0.9,0-1.7-0.2-2.2-0.7c-0.5-0.5-0.8-1.1-0.8-1.9
		s0.3-1.5,0.8-1.9C484.7,276.8,485.5,276.6,486.4,276.6z"/>
</g>
<g>
	<path fill="none" stroke="#69C28F" stroke-width="4" stroke-linecap="round" stroke-linejoin="round" stroke-miterlimit="10" d="
		M327.1,143.4c36.1-27.1,62-57.4,68.5-94"/>
	
		<line fill="none" stroke="#69C28F" stroke-width="4" stroke-linecap="round" stroke-linejoin="round" stroke-miterlimit="10" x1="325.7" y1="95.6" x2="326" y2="143.5"/>
</g>
<path fill="#FFFFFF" d="M59.2,125.5c-1.6,1.2-3.1,1.2-4.5-0.2c-4.4-4.4-9.9-10.6-16.4-18.7c0.9,15.3,1.4,35.3,1.4,59.9
	c0,39.4,0.1,61.7,0.2,66.8c0,0.7-0.3,1.3-0.8,1.8c-0.5,0.5-1.3,0.8-2.1,0.8c-0.9,0-1.6-0.2-2.2-0.7c-0.6-0.5-0.9-1.1-0.9-1.9
	c-0.5-10.3-0.6-32.5-0.5-66.8c0.2-28-0.5-50.3-1.9-66.8c-0.2-0.8,0.1-1.5,0.7-2c0.2-0.7,0.5-1.2,1.2-1.6c1.7-1.1,3.2-0.9,4.5,0.6
	c11.1,13.4,17.7,21.1,19.7,23c5.6-4.5,13-11.8,22.1-21.9v-0.2c-0.2-0.8,0.1-1.5,0.7-2c0.6-0.5,1.4-0.9,2.2-0.9
	c0.9-0.1,1.6,0.2,2.2,0.7c0.6,0.5,0.9,1.2,0.9,1.8v0.2c0.3,0.5,0.4,1.1,0.2,1.6c0.2,7.1,0.2,12.2,0,15.4c-0.2,3.1-0.6,8.3-1.2,15.4
	c-0.6,6.8-1,11.8-1.2,15c-0.6,10.3-0.6,25,0,44.3c0.6,20.6,0.8,35.5,0.5,44.5c0,0.8-0.3,1.5-0.9,1.9c-0.6,0.5-1.4,0.7-2.2,0.7
	c-0.9,0-1.6-0.3-2.1-0.8c-0.6-0.5-0.8-1.2-0.8-1.8c0.3-9,0.2-23.9-0.5-44.5c-0.6-19.7-0.6-34.6,0-44.7c0-1.8,0.4-7.3,1.2-16.7
	c0.8-9.4,1.2-16.5,1.2-21.4c-7.5,8.2-14.2,14.6-20,19.1C59.6,125.2,59.3,125.4,59.2,125.5z"/>
<path fill="#FFFFFF" d="M161.3,93.5c1.2,4.8,3.8,11.7,7.7,20.7c4.1,9.4,6.8,16.5,8.2,21.3c14.4,49.1,25,82.6,31.9,100.5
	c0.6,1.6,0,2.8-2,3.4c-2,0.6-3.3,0-4.1-1.7c-8.3-21.7-18.9-55.4-31.9-100.9c-0.8-2.9-1.9-6.2-3.3-9.8h-0.2l-11.3-0.2
	c-3.6,0-6.6,0.1-8.9,0.2c-16.9,41.3-28.1,77.8-33.6,109.5c-0.2,0.7-0.6,1.3-1.2,1.7c-0.6,0.5-1.4,0.6-2.2,0.5
	c-0.9-0.1-1.6-0.5-2.1-1c-0.5-0.5-0.7-1.2-0.6-2c3.8-22.1,9.5-44.5,17.4-66.9c7.8-22.5,17.6-46.9,29.3-73.3c0.2-0.4,0.4-0.7,0.7-1
	c-0.2-1.5,0.6-2.5,2.3-2.9C159.6,91.1,160.8,91.7,161.3,93.5z M165.5,121.6l-2.3-5.5c-3-7-4.8-11.3-5.4-13.1l-8,18.5h6.8
	c0.6,0,2,0,4.1,0.1C162.8,121.6,164.4,121.6,165.5,121.6z"/>
<path fill="#FFFFFF" d="M239.5,233.4c-0.6-11.5-0.5-33.7,0.5-66.6c0.8-27.7,0.3-49.8-1.4-66c-0.2-1.1,0.3-1.9,1.4-2.5V98
	c0-0.7,0.3-1.3,0.8-1.8c0.5-0.5,1.3-0.8,2.2-0.8c1.1-0.1,3-0.3,5.6-0.5c2.7-0.2,4.6-0.3,5.9-0.3c5.6-0.3,9.9-0.1,12.9,0.6
	c3.3,0.8,6.6,2.5,9.9,5c3.3,2.5,5.8,5.3,7.5,8.3c2,3.6,2.5,6.8,1.4,9.8c-1.4,3.6-4.8,6-10.1,7.4c-3.6,1-8.3,1.3-14.1,1
	c2.2,4.5,4.6,11.6,7.3,21.3c0.8,3,2,7.9,3.5,14.7c1.6,6.8,2.7,11.3,3.5,13.6c0.6,2.3,3.9,11.4,9.9,27.3c4.2,11.3,7,20.7,8.4,28.1
	c0.2,0.7,0,1.3-0.5,1.9c-0.5,0.6-1.1,1-2,1.1c-0.9,0.1-1.6,0-2.3-0.4c-0.7-0.4-1.1-1-1.3-1.8c-1.3-6.3-4.1-15.4-8.5-27.3
	c-5.3-14.5-8.6-23.7-9.9-27.7c-0.6-2.3-1.7-6.9-3.3-13.7l-3.8-14.6c-3.1-11.6-5.9-19.3-8.4-23.2l-8.5-1c0.3,10.8,0.3,24.7,0,41.8
	c-0.6,38.3-0.9,60.3-0.7,66c0.2,0.8-0.1,1.5-0.7,2c-0.6,0.5-1.4,0.9-2.2,0.9c-0.9,0.1-1.6-0.2-2.2-0.7
	C239.8,234.7,239.5,234,239.5,233.4z M244.6,100.7c0.6,6,1.1,12.3,1.4,18.9c0.9,0.1,2.4,0.3,4.5,0.6c2,0.3,3.7,0.4,4.9,0.4
	c0.9-0.3,1.8-0.1,2.6,0.4c7.2,0.5,12.6,0.3,16.2-0.6c3.3-0.8,5.3-2.1,6.1-3.7c0.6-1.6,0.2-3.6-1.2-5.7c-1.3-2.3-3.2-4.5-5.9-6.6
	c-2.7-2.1-5.2-3.3-7.7-3.9c-2.2-0.5-5.7-0.7-10.6-0.4c-1.3,0-3.1,0.1-5.4,0.3C247.2,100.6,245.6,100.7,244.6,100.7z"/>
<path fill="#FFFFFF" d="M409.2,94.3c8.3-0.1,13.8-0.2,16.7-0.2s8.3,0.2,16.4,0.5c8.1,0.3,13.6,0.6,16.4,0.7c0.9,0,1.7,0.3,2.2,0.8
	c0.5,0.5,0.8,1.2,0.8,1.9c0,0.8-0.3,1.4-0.9,1.8c-0.6,0.5-1.3,0.7-2.1,0.7c-3.1,0-8-0.1-14.7-0.4c-6.7-0.3-12.5-0.5-17.5-0.6
	c-5-0.1-9.9-0.1-14.6,0V121c2.5,0.1,7.5,0.2,15,0.2c0.9,0,1.7,0.2,2.2,0.7c0.5,0.5,0.8,1.1,0.8,1.9s-0.3,1.5-0.8,1.9
	c-0.6,0.5-1.3,0.7-2.2,0.7c-7.4,0-12.4-0.1-15-0.2v104.6c2.5,0,6.3,0,11.4-0.1c5.1-0.1,9-0.2,11.6-0.3c10.3,0,19,0.3,26.1,1
	c0.9,0,1.7,0.3,2.2,0.9c0.5,0.6,0.8,1.3,0.7,2.1c-0.1,0.7-0.5,1.4-1.2,1.8c-0.7,0.5-1.4,0.6-2.2,0.5c-7-0.5-15.6-0.8-25.6-0.8
	c-2.7,0-6.7,0-12,0.1c-5.3,0.1-9.2,0.1-11.7,0.1c-0.6,0.5-1.4,0.8-2.3,0.8c-0.9,0-1.7-0.2-2.2-0.7c-0.5-0.5-0.8-1.1-0.8-1.9v-137
	c0-0.8,0.4-1.5,1.2-2C407.5,94.7,408.2,94.3,409.2,94.3z"/>
<path fill="#FFFFFF" d="M485.7,96c5.9,0,14.7-0.1,26.4-0.4c11.7-0.3,20.4-0.4,26.2-0.4c0.9,0,1.7,0.2,2.2,0.7
	c0.5,0.5,0.8,1.1,0.8,1.9c0,0.8-0.3,1.5-0.8,1.9c-0.5,0.5-1.3,0.7-2.2,0.7c-5.8,0-13.6,0.1-23.5,0.4c0.2,2.1,0.1,4.6-0.2,7.8
	c-0.2,4.9-0.2,8.2-0.2,9.8c0.9,15,1.7,36.4,2.3,64.2l1.2,52.1c0,0.7-0.3,1.3-0.8,1.8c-0.6,0.5-1.3,0.8-2.1,0.8
	c-0.9,0-1.6-0.2-2.2-0.7c-0.6-0.5-0.9-1.1-0.9-1.9c-0.3-6.8-0.8-24.1-1.4-51.9c-0.6-27.7-1.3-49.1-2.1-64c-0.2-1.9-0.1-5.4,0.2-10.5
	c0.2-3.1,0.2-5.6,0-7.4c-9.5,0.1-17.1,0.2-22.8,0.2c-0.9,0-1.7-0.2-2.2-0.7c-0.5-0.5-0.8-1.1-0.8-1.9c0-0.8,0.3-1.5,0.8-1.9
	C484,96.2,484.7,96,485.7,96z"/>
<g>
	
		<line fill="#DFB999" stroke="#FFFFFF" stroke-width="5" stroke-linecap="round" stroke-miterlimit="10" x1="327.1" y1="153.5" x2="388" y2="235.8"/>
	
		<line fill="#DFB999" stroke="#FFFFFF" stroke-width="5" stroke-linecap="round" stroke-miterlimit="10" x1="325.2" y1="233" x2="326" y2="153.3"/>
</g>
<line fill="none" stroke="#69C28F" stroke-width="4" stroke-linecap="round" stroke-linejoin="round" stroke-miterlimit="10" x1="25.1" y1="258.8" x2="543.1" y2="258.8"/>
<path fill="none" stroke="#69C28F" stroke-width="4" stroke-linecap="round" stroke-linejoin="round" stroke-miterlimit="10" d="
	M351,114c0,0-14-30,10-53c0,0,31-26,35-51c0,0,17.5,32.2,3,74.6c-1.5,4.5-3.5,8.8-6.2,12.8c-9.3,13.8-22.4,19.1-36.8,21.7"/>
<g>
	<g>
		<path fill="none" stroke="#69C28F" stroke-width="4" stroke-linecap="round" stroke-linejoin="round" stroke-miterlimit="10" d="
			M637.1,294.4c36.1-27.1,62-57.4,68.5-94"/>
		
			<line fill="none" stroke="#69C28F" stroke-width="4" stroke-linecap="round" stroke-linejoin="round" stroke-miterlimit="10" x1="635.7" y1="246.6" x2="636" y2="294.5"/>
	</g>
	<g>
		
			<line fill="#DFB999" stroke="#FFFFFF" stroke-width="5" stroke-linecap="round" stroke-miterlimit="10" x1="637.1" y1="304.5" x2="698" y2="386.8"/>
		
			<line fill="#DFB999" stroke="#FFFFFF" stroke-width="5" stroke-linecap="round" stroke-miterlimit="10" x1="635.2" y1="384" x2="636" y2="304.3"/>
	</g>
	<path fill="none" stroke="#69C28F" stroke-width="4" stroke-linecap="round" stroke-linejoin="round" stroke-miterlimit="10" d="
		M661,265c0,0-14-30,10-53c0,0,31-26,35-51c0,0,17.5,32.2,3,74.6c-1.5,4.5-3.5,8.8-6.2,12.8c-9.3,13.8-22.4,19.1-36.8,21.7"/>
</g>
</svg>
