<?xml version="1.0" encoding="utf-8"?>
<!-- Generator: Adobe Illustrator 18.1.1, SVG Export Plug-In . SVG Version: 6.00 Build 0)  -->
<svg version="1.1" id="Layer_1" xmlns="http://www.w3.org/2000/svg" xmlns:xlink="http://www.w3.org/1999/xlink" x="0px" y="0px"
	 viewBox="0 0 360 360" enable-background="new 0 0 360 360" xml:space="preserve">
<path fill="#FFFFFF" stroke="#000000" stroke-miterlimit="10" d="M328.6,24.4v319.4H26.7v-10.3c0.2,0,0.3,0,0.5,0
	c4.9,0,8.9-3.8,8.9-8.6c0-4.7-4-8.6-8.9-8.6c-0.2,0-0.3,0-0.5,0V306c0.5,0.1,1.1,0.1,1.6,0.1c4.9,0,8.9-3.8,8.9-8.6
	c0-4.7-4-8.6-8.9-8.6c-0.5,0-1.1,0-1.6,0.1v-12.9c0.5,0.1,1.1,0.1,1.6,0.1c4.9,0,8.9-3.8,8.9-8.6c0-4.7-4-8.6-8.9-8.6
	c-0.5,0-1.1,0-1.6,0.1v-14c0.5,0.1,1.1,0.1,1.6,0.1c4.9,0,8.9-3.8,8.9-8.6c0-4.7-4-8.6-8.9-8.6c-0.5,0-1.1,0-1.6,0.1v-16.4
	c0.7,0.2,1.4,0.3,2.2,0.3c4.9,0,8.9-3.8,8.9-8.6c0-4.7-4-8.6-8.9-8.6c-0.8,0-1.5,0.1-2.2,0.3v-13.1c0.7,0.2,1.4,0.3,2.2,0.3
	c4.9,0,8.9-3.8,8.9-8.6c0-4.7-4-8.6-8.9-8.6c-0.8,0-1.5,0.1-2.2,0.3v-14.2c0.7,0.2,1.4,0.3,2.2,0.3c4.9,0,8.9-3.8,8.9-8.6
	c0-4.7-4-8.6-8.9-8.6c-0.8,0-1.5,0.1-2.2,0.3V123c0.7,0.2,1.4,0.3,2.2,0.3c4.9,0,8.9-3.8,8.9-8.6c0-4.7-4-8.6-8.9-8.6
	c-0.8,0-1.5,0.1-2.2,0.3V93.3c0.7,0.2,1.4,0.3,2.2,0.3c4.9,0,8.9-3.8,8.9-8.6c0-4.7-4-8.6-8.9-8.6c-0.8,0-1.5,0.1-2.2,0.3V62.5
	c0.7,0.2,1.4,0.3,2.2,0.3c4.9,0,8.9-3.8,8.9-8.6c0-4.7-4-8.6-8.9-8.6c-0.8,0-1.5,0.1-2.2,0.3V24.4H328.6z"/>
<line fill="none" stroke="#000000" stroke-miterlimit="10" x1="49.1" y1="24.4" x2="49.7" y2="343.9"/>
</svg>
